<svg width="24" height="24" viewBox="0 0 24 24" fill="none" xmlns="http://www.w3.org/2000/svg">
    <path fill-rule="evenodd" clip-rule="evenodd" d="m20 7.74 1.66 1.51a1 1 0 0 1-1.32 1.5l-.34-.3V19a3 3 0 0 1-3 3h-3a1 1 0 0 1-1-1v-5a.93.93 0 0 0-.29-.69A1 1 0 0 0 12 15a1 1 0 0 0-1 1v5a1 1 0 0 1-1 1H7a3 3 0 0 1-3-3v-8.55l-.34.3a1 1 0 0 1-1.32-1.5L4 7.74 4.85 7l6.49-5.75a1 1 0 0 1 1.32 0L19.15 7l.85.74zM17 20a1 1 0 0 0 1-1V8.67l-6-5.33-6 5.33V19a1 1 0 0 0 1 1h2v-4a3 3 0 1 1 6 0v4h2z" fill="#00439C"/>
</svg>
