<?xml version="1.0" standalone="no"?>
<!DOCTYPE svg PUBLIC "-//W3C//DTD SVG 20010904//EN"
 "http://www.w3.org/TR/2001/REC-SVG-20010904/DTD/svg10.dtd">
<svg version="1.0" xmlns="http://www.w3.org/2000/svg"
 width="256.000000pt" height="256.000000pt" viewBox="0 0 256.000000 256.000000"
 preserveAspectRatio="xMidYMid meet">

<g transform="translate(0.000000,256.000000) scale(0.100000,-0.100000)"
fill="#000000" stroke="none">
<path d="M560 2546 c-93 -25 -163 -87 -209 -186 l-26 -55 0 -1025 0 -1025 26
-56 c36 -76 90 -133 157 -166 l57 -28 775 -3 c867 -3 827 -6 873 67 l22 36 0
1177 c0 1173 0 1177 -21 1204 -11 15 -33 37 -48 48 -27 21 -37 21 -794 23
-583 1 -778 -1 -812 -11z m770 -440 c0 -319 1 -334 20 -359 30 -38 81 -52 118
-33 36 18 60 47 117 140 l43 69 27 -44 c74 -117 98 -148 129 -163 46 -22 100
-6 126 37 19 30 20 53 20 360 l0 327 74 0 c41 0 81 -3 90 -6 14 -6 16 -94 16
-898 l0 -891 -717 3 c-440 1 -743 -1 -783 -7 -35 -6 -86 -22 -112 -35 l-48
-25 0 853 0 853 23 43 c12 24 34 52 48 62 59 44 86 47 457 48 l352 0 0 -334z
m480 47 c0 -158 -4 -283 -8 -277 -5 5 -35 51 -67 102 -96 155 -119 156 -210
10 -32 -51 -62 -97 -67 -102 -4 -6 -8 117 -8 272 l0 282 180 0 180 0 0 -287z
m298 -1705 l3 -68 -712 0 c-649 0 -714 -1 -731 -17 -22 -20 -23 -61 -1 -85 15
-17 51 -18 730 -18 l714 0 -3 -68 -3 -67 -735 -3 c-528 -2 -746 0 -775 9 -97
27 -150 107 -143 210 5 71 41 122 108 157 l44 22 751 -2 750 -3 3 -67z"/>
</g>
</svg>
