<svg width="24" height="24" viewBox="0 0 24 24" fill="none" xmlns="http://www.w3.org/2000/svg">
    <path fill-rule="evenodd" clip-rule="evenodd" d="M19 6h-1V5a3 3 0 0 0-3-3H5a3 3 0 0 0-3 3v7a3 3 0 0 0 3 3v2a1 1 0 0 0 .55.89A.91.91 0 0 0 6 18a1 1 0 0 0 .6-.2A3 3 0 0 0 9 19h4.67l3.73 2.8a1 1 0 0 0 .6.2.91.91 0 0 0 .45-.11A1 1 0 0 0 19 21v-2a3 3 0 0 0 3-3V9a3 3 0 0 0-3-3zM7 15v-1a1 1 0 0 0-1-1H5a1 1 0 0 1-1-1V5a1 1 0 0 1 1-1h10a1 1 0 0 1 1 1v7a1 1 0 0 1-1 1h-5a1 1 0 0 0-.6.2L7 15zm12 2a1 1 0 0 0 1-1V9a1 1 0 0 0-1-1h-1v4a3 3 0 0 1-3 3h-4.67l-2.11 1.59A1 1 0 0 0 9 17h5a1 1 0 0 1 .6.2L17 19v-1a1 1 0 0 1 1-1h1z" fill="#00439C"/>
</svg>
