<svg width="24" height="24" viewBox="0 0 24 24" fill="none" xmlns="http://www.w3.org/2000/svg">
    <path fill-rule="evenodd" clip-rule="evenodd" d="M21.31 9.11 20 8.68l.62-1.22a1 1 0 0 0-.18-1.16L17.7 3.55a1 1 0 0 0-1.16-.18L15.32 4l-.43-1.3a1 1 0 0 0-1-.69h-3.83a1 1 0 0 0-1 .69L8.68 4l-1.22-.63a1 1 0 0 0-1.16.18L3.55 6.3a1 1 0 0 0-.18 1.16L4 8.68l-1.3.43a1 1 0 0 0-.69 1v3.88a1 1 0 0 0 .69 1l1.3.43-.62 1.22a1 1 0 0 0 .18 1.16l2.74 2.65a1 1 0 0 0 1.16.18L8.68 20l.43 1.3a1 1 0 0 0 1 .69h3.88a1 1 0 0 0 1-.69l.43-1.3 1.22.62a1 1 0 0 0 1.16-.18l2.75-2.75a1 1 0 0 0 .18-1.16L20 15.32l1.3-.43a1 1 0 0 0 .69-1v-3.83a1 1 0 0 0-.68-.95zM7 12a5 5 0 1 1 10 0 5 5 0 0 1-10 0zm2 0a3 3 0 1 0 6 0 3 3 0 0 0-6 0zm10.39 1.42.61-.2v-2.44l-.61-.2a2 2 0 0 1-1.23-1.13 2 2 0 0 1 .07-1.67l.29-.58-1.72-1.72-.58.29a2 2 0 0 1-2.8-1.16l-.2-.61h-2.44l-.2.61a2 2 0 0 1-2.8 1.16l-.58-.29L5.48 7.2l.29.58a2 2 0 0 1 .07 1.67 2 2 0 0 1-1.23 1.13l-.61.2v2.44l.61.2a2 2 0 0 1 1.23 1.13 2 2 0 0 1-.07 1.67l-.29.58 1.72 1.72.58-.29a2 2 0 0 1 2.8 1.16l.2.61h2.44l.2-.61a2 2 0 0 1 2.8-1.16l.58.29 1.72-1.72-.29-.58a2 2 0 0 1-.07-1.67 2 2 0 0 1 1.23-1.13z" fill="#00439C"/>
</svg>
