<svg width="24" height="24" viewBox="0 0 24 24" fill="none" xmlns="http://www.w3.org/2000/svg">
    <path d="M12.998 22h-2v-3h2v3zm5.364-2.222-2.121-2.121 1.414-1.414 2.122 2.122-1.413 1.413h-.002zm-12.728 0-1.415-1.414 2.12-2.122 1.415 1.414-2.12 2.121v.001zm6.364-2.771a5.007 5.007 0 1 1 .004-10.014 5.007 5.007 0 0 1-.004 10.014zm0-8.014a3.007 3.007 0 1 0 .004 6.014 3.007 3.007 0 0 0-.004-6.014zm10 4.007h-3v-2h3v2zm-17 0h-3v-2h3v2zm12.656-5.242-1.413-1.415 2.121-2.122 1.415 1.415-2.122 2.121-.001.001zm-11.313 0-2.12-2.121 1.415-1.414 2.12 2.122-1.414 1.412-.001.001zM12.998 5h-2V2h2v3z" fill="#00439C"/>
</svg>
